<?xml version="1.0" encoding="UTF-8" standalone="no"?>
<!-- Created with Inkscape (http://www.inkscape.org/) -->

<svg
   xmlns:dc="http://purl.org/dc/elements/1.1/"
   xmlns:cc="http://creativecommons.org/ns#"
   xmlns:rdf="http://www.w3.org/1999/02/22-rdf-syntax-ns#"
   xmlns:svg="http://www.w3.org/2000/svg"
   xmlns="http://www.w3.org/2000/svg"
   xmlns:sodipodi="http://sodipodi.sourceforge.net/DTD/sodipodi-0.dtd"
   xmlns:inkscape="http://www.inkscape.org/namespaces/inkscape"
   width="357.10999"
   height="360.638"
   id="svg2"
   inkscape:label="Pozadí"
   sodipodi:version="0.32"
   inkscape:version="0.48.0 r9654"
   version="1.0"
   sodipodi:docname="bonao.svg"
   inkscape:output_extension="org.inkscape.output.svg.inkscape">
  <defs
     id="defs2176">
    <inkscape:perspective
       sodipodi:type="inkscape:persp3d"
       inkscape:vp_x="0 : 180.319 : 1"
       inkscape:vp_y="0 : 1000 : 0"
       inkscape:vp_z="357.10999 : 180.319 : 1"
       inkscape:persp3d-origin="178.55499 : 120.21267 : 1"
       id="perspective294" />
    <path
       sodipodi:nodetypes="cc"
       inkscape:connector-curvature="0"
       id="path4002-1"
       d="m -537.73973,304.2366 c 60.33135,21.01925 108.86492,-0.80916 108.86492,-0.80916"
       style="fill:none;stroke:#000000" />
  </defs>
  <sodipodi:namedview
     id="base"
     pagecolor="#ffffff"
     bordercolor="#666666"
     borderopacity="1.0"
     inkscape:pageopacity="0.0"
     inkscape:pageshadow="2"
     inkscape:zoom="0.63359935"
     inkscape:cx="4.3083696"
     inkscape:cy="196.44907"
     inkscape:document-units="px"
     inkscape:current-layer="layer1"
     inkscape:window-width="1366"
     inkscape:window-height="706"
     inkscape:window-x="-8"
     inkscape:window-y="-8"
     showgrid="false"
     inkscape:window-maximized="1"
     showguides="true"
     inkscape:guide-bbox="true" />
  <metadata
     id="metadata2179">
    <rdf:RDF>
      <cc:Work
         rdf:about="">
        <dc:format>image/svg+xml</dc:format>
        <dc:type
           rdf:resource="http://purl.org/dc/dcmitype/StillImage" />
        <dc:title></dc:title>
      </cc:Work>
    </rdf:RDF>
  </metadata>
  <g
     inkscape:label="Vrstva 1"
     inkscape:groupmode="layer"
     id="layer1">
    <g
       transform="matrix(0.38017987,0,0,0.38017987,37.110122,-27.310517)"
       id="g4954">
      <path
         inkscape:connector-curvature="0"
         style="fill:#aaccff;fill-opacity:1;stroke:none;stroke-width:2.70308971;marker:none;visibility:visible;display:inline;overflow:visible;enable-background:accumulate"
         d="m 72.871585,169.12893 c 0.244772,143.81694 -0.493786,287.64987 0.375438,431.45681 4.613715,129.06179 104.087787,246.94287 231.114097,274.19905 117.51513,28.43129 249.07071,-22.66295 315.40097,-123.42145 39.72444,-56.35108 54.35427,-126.08838 51.0784,-193.97096 0,-129.42106 0,-258.84244 0,-388.26345 -199.32269,0 -398.64511,0 -597.967693,0 z"
         id="path4172-99-6-8" />
      <g
         transform="matrix(2.2068183,0,0,2.2068183,1682.8478,2301.4699)"
         id="g4344">
        <path
           transform="translate(0,-2.8116281)"
           style="color:#000000;fill:#ffffff;fill-opacity:1;fill-rule:nonzero;stroke:none;stroke-width:10.19999981;marker:none;visibility:visible;display:inline;overflow:visible;enable-background:accumulate"
           d="m -654.17216,-939.67633 c 0,5.95247 -14.6861,10.77791 -32.80233,10.77791 -18.11622,0 -32.80232,-4.82544 -32.80232,-10.77791 0,-5.95247 14.6861,-10.77791 32.80232,-10.77791 18.11623,0 32.80233,4.82544 32.80233,10.77791 z"
           id="path4317" />
        <path
           transform="translate(0.93723408,46.391877)"
           style="color:#000000;fill:#ffffff;fill-opacity:1;fill-rule:nonzero;stroke:none;stroke-width:10.19999981;marker:none;visibility:visible;display:inline;overflow:visible;enable-background:accumulate"
           d="m -654.17216,-939.67633 c 0,5.95247 -14.6861,10.77791 -32.80233,10.77791 -18.11622,0 -32.80232,-4.82544 -32.80232,-10.77791 0,-5.95247 14.6861,-10.77791 32.80232,-10.77791 18.11623,0 32.80233,4.82544 32.80233,10.77791 z"
           id="path4317-1" />
        <path
           transform="translate(2.4675487e-5,22.024433)"
           style="color:#000000;fill:#ffffff;fill-opacity:1;fill-rule:nonzero;stroke:none;stroke-width:10.19999981;marker:none;visibility:visible;display:inline;overflow:visible;enable-background:accumulate"
           d="m -654.17216,-939.67633 c 0,5.95247 -14.6861,10.77791 -32.80233,10.77791 -18.11622,0 -32.80232,-4.82544 -32.80232,-10.77791 0,-5.95247 14.6861,-10.77791 32.80232,-10.77791 18.11623,0 32.80233,4.82544 32.80233,10.77791 z"
           id="path4317-2" />
      </g>
      <path
         inkscape:connector-curvature="0"
         id="path4172-99-6-8-2"
         d="m 73.397502,596.09443 c 0.0101,1.70494 -0.0101,3.40712 0,5.11205 4.613715,129.06179 104.088598,246.96399 231.114908,274.22017 117.51512,28.43129 249.03872,-22.62479 315.36897,-123.3833 32.32467,-45.85415 48.02867,-100.57939 50.99423,-155.94892 l -597.478108,0 z"
         style="fill:#00aad4;fill-opacity:1;stroke:none;stroke-width:2.70308971;marker:none;visibility:visible;display:inline;overflow:visible;enable-background:accumulate" />
      <path
         inkscape:connector-curvature="0"
         id="path4522"
         d="m 185.08591,637.52039 170.01293,9.9406 C 535.17829,634.20685 535.17829,633.54414 535.17829,633.54414 360.69137,622.27812 360.69137,622.27812 360.69137,622.27812 198.50798,636.85768 185.08591,637.52039 185.08591,637.52039 z"
         style="fill:#ffffff;stroke:#ffffff;stroke-width:1.29914725px;stroke-linecap:butt;stroke-linejoin:miter;stroke-opacity:1" />
      <path
         inkscape:connector-curvature="0"
         id="path4522-7"
         d="m 115.1283,679.33082 244.77457,-9.9406 c 259.26782,13.25414 259.26782,13.91685 259.26782,13.91685 C 367.95466,694.57309 367.95466,694.57309 367.95466,694.57309 134.4526,679.99353 115.1283,679.33082 115.1283,679.33082 z"
         style="fill:#ffffff;stroke:#ffffff;stroke-width:1.55883646px;stroke-linecap:butt;stroke-linejoin:miter;stroke-opacity:1" />
      <path
         inkscape:connector-curvature="0"
         id="path4522-7-0"
         d="m 163.53099,799.36108 203.96079,22.43264 C 584.35109,800.87509 584.37399,799.63012 584.37399,799.63012 375.08256,774.60864 375.08256,774.60864 375.08256,774.60864 179.68316,798.4128 163.53099,799.36108 163.53099,799.36108 z"
         style="fill:#ffffff;stroke:#ffffff;stroke-width:1.95230436px;stroke-linecap:butt;stroke-linejoin:miter;stroke-opacity:1" />
      <path
         inkscape:connector-curvature="0"
         id="path4522-7-0-0"
         d="m 120.98814,732.61303 244.77454,9.9406 C 625.03059,729.29949 625.03059,728.63678 625.03059,728.63678 373.81448,717.37076 373.81448,717.37076 373.81448,717.37076 140.31244,731.95032 120.98814,732.61303 120.98814,732.61303 z"
         style="fill:#ffffff;stroke:#ffffff;stroke-width:1.55883646px;stroke-linecap:butt;stroke-linejoin:miter;stroke-opacity:1" />
      <g
         transform="matrix(0.88725084,0,0,0.88725084,148.33463,-94.53862)"
         id="g4909">
        <path
           style="fill:#ffffff;fill-rule:evenodd;stroke:none"
           inkscape:connector-curvature="0"
           id="path7-7-0"
           d="m 156.90166,526.17867 c 0,-118.82029 96.32253,-215.13966 215.14461,-215.13966 118.82164,0 215.14655,96.31937 215.14655,215.13966 0,118.82331 -96.32491,215.1445 -215.14655,215.1445 -118.82208,0 -215.14461,-96.32119 -215.14461,-215.1445 l 0,0 z"
           clip-rule="evenodd" />
        <path
           style="fill:#ffcc00;fill-rule:evenodd"
           inkscape:connector-curvature="0"
           id="path7-7-6"
           d="m 168.09547,526.1788 c 0,-112.63815 91.31094,-203.94609 203.95081,-203.94609 112.63945,0 203.95274,91.30794 203.95274,203.94609 0,112.64111 -91.31329,203.95068 -203.95274,203.95068 -112.63987,0 -203.95081,-91.30957 -203.95081,-203.95068 l 0,0 z"
           clip-rule="evenodd" />
        <g
           id="g4900"
           style="fill:#ffffff;stroke:#ffffff">
          <path
             transform="scale(-1,1)"
             style="color:#000000;fill:#ffffff;fill-opacity:1;fill-rule:nonzero;stroke:#ffffff;stroke-width:3.67503858;stroke-linecap:butt;stroke-linejoin:miter;stroke-miterlimit:4;stroke-dashoffset:0;stroke-opacity:1;marker:none;visibility:visible;display:inline;overflow:visible;enable-background:accumulate"
             d="m -232.42786,371.76007 6.55916,0 0,305.40158 -6.55916,0 z"
             id="rect4780" />
          <path
             transform="scale(-1,1)"
             style="color:#000000;fill:#ffffff;fill-opacity:1;fill-rule:nonzero;stroke:#ffffff;stroke-width:4.25445652;stroke-linecap:butt;stroke-linejoin:miter;stroke-miterlimit:4;stroke-dashoffset:0;stroke-opacity:1;marker:none;visibility:visible;display:inline;overflow:visible;enable-background:accumulate"
             d="m -329.42841,320.8866 6.55916,0 0,409.29422 -6.55916,0 z"
             id="rect4780-9" />
          <path
             transform="scale(-1,1)"
             style="color:#000000;fill:#ffffff;fill-opacity:1;fill-rule:nonzero;stroke:#ffffff;stroke-width:4.25113773;stroke-linecap:butt;stroke-linejoin:miter;stroke-miterlimit:4;stroke-dashoffset:0;stroke-opacity:1;marker:none;visibility:visible;display:inline;overflow:visible;enable-background:accumulate"
             d="m -426.89819,323.31061 6.55915,0 0,408.65591 -6.55915,0 z"
             id="rect4780-7" />
          <path
             transform="scale(-1,1)"
             style="color:#000000;fill:#ffffff;fill-opacity:1;fill-rule:nonzero;stroke:#ffffff;stroke-width:3.6181407;stroke-linecap:butt;stroke-linejoin:miter;stroke-miterlimit:4;stroke-dashoffset:0;stroke-opacity:1;marker:none;visibility:visible;display:inline;overflow:visible;enable-background:accumulate"
             d="m -520.61914,377.95267 6.55915,0 0,296.01816 -6.55915,0 z"
             id="rect4780-95" />
          <path
             transform="matrix(-0.00104213,0.99999946,0.9999938,0.0035209,0,0)"
             style="color:#000000;fill:#ffffff;fill-opacity:1;fill-rule:nonzero;stroke:#ffffff;stroke-width:4.06272459;stroke-linecap:butt;stroke-linejoin:miter;stroke-miterlimit:4;stroke-dashoffset:0;stroke-opacity:1;marker:none;visibility:visible;display:inline;overflow:visible;enable-background:accumulate"
             d="m 429.22116,183.5993 6.55915,0 0,373.23533 -6.55915,0 z"
             id="rect4780-95-6" />
          <path
             transform="matrix(-0.00116787,0.99999932,0.99999506,0.00314183,0,0)"
             style="color:#000000;fill:#ffffff;fill-opacity:1;fill-rule:nonzero;stroke:#ffffff;stroke-width:4.30084324;stroke-linecap:butt;stroke-linejoin:miter;stroke-miterlimit:4;stroke-dashoffset:0;stroke-opacity:1;marker:none;visibility:visible;display:inline;overflow:visible;enable-background:accumulate"
             d="m 526.82605,162.80602 6.55915,0 0,418.26843 -6.55915,0 z"
             id="rect4780-95-6-3" />
          <path
             transform="matrix(-0.00102582,0.99999947,0.9999936,0.0035769,0,0)"
             style="color:#000000;fill:#ffffff;fill-opacity:1;fill-rule:nonzero;stroke:#ffffff;stroke-width:4.03079605;stroke-linecap:butt;stroke-linejoin:miter;stroke-miterlimit:4;stroke-dashoffset:0;stroke-opacity:1;marker:none;visibility:visible;display:inline;overflow:visible;enable-background:accumulate"
             d="m 620.38239,189.00003 6.55914,0 0,367.39194 -6.55914,0 z"
             id="rect4780-95-6-5" />
        </g>
      </g>
      <g
         transform="matrix(2.0195732,0,0,2.0195732,1549.9658,2111.19)"
         id="g4364">
        <path
           style="fill:#008000;stroke:none"
           d="m -460.66427,-753.94542 c -6.50731,-26.71046 -6.50731,-26.71046 -6.50731,-26.71046 -100.39854,-23.43024 -104.58183,-25.30465 -104.58183,-25.30465 -3.71845,-16.40117 -4.64807,-16.40117 -4.64807,-16.40117 -33.46618,-0.4686 -33.46618,-0.4686 -33.46618,-0.4686 -0.46481,-7.02907 -0.46481,-7.02907 -0.46481,-7.02907 -18.12752,-0.46861 -18.12752,-0.46861 -18.12752,-0.46861 -0.4648,6.09186 -0.4648,6.09186 -0.4648,6.09186 -38.11427,0 -38.11427,0 -38.11427,0 -22.77559,66.54187 -22.77559,66.54187 -22.77559,66.54187 -2.32405,4.21744 8.36654,3.28023 8.36654,3.28023 l 0,0 c 158.96437,-0.46861 220.78384,0.4686 220.78384,0.4686 z"
           id="path4194-7"
           inkscape:connector-curvature="0"
           sodipodi:nodetypes="ccccccccccccc" />
        <path
           style="color:#000000;fill:#ffffff;fill-opacity:1;fill-rule:nonzero;stroke:none;stroke-width:10.19999981;marker:none;visibility:visible;display:inline;overflow:visible;enable-background:accumulate"
           d="m -627.48749,-822.36169 4.68605,0 0,67.01046 -4.68605,0 z"
           id="rect4196-54" />
        <path
           style="color:#000000;fill:#ffffff;fill-opacity:1;fill-rule:nonzero;stroke:none;stroke-width:10.19999981;marker:none;visibility:visible;display:inline;overflow:visible;enable-background:accumulate"
           d="m -618.58398,-822.59595 4.68604,0 0,67.01047 -4.68604,0 z"
           id="rect4196-5-8" />
        <path
           transform="matrix(1,0,0.23208192,0.97269624,0,0)"
           style="color:#000000;fill:#ffffff;fill-opacity:1;fill-rule:nonzero;stroke:none;stroke-width:10.19999981;marker:none;visibility:visible;display:inline;overflow:visible;enable-background:accumulate"
           d="m -408.94962,-844.7229 11.24652,0 0,68.65058 -11.24652,0 z"
           id="rect4216-8" />
        <path
           transform="matrix(1,0,0.24574667,0.96933409,0,0)"
           style="color:#000000;fill:#ffffff;fill-opacity:1;fill-rule:nonzero;stroke:none;stroke-width:10.19999981;marker:none;visibility:visible;display:inline;overflow:visible;enable-background:accumulate"
           d="m -380.75406,-847.65283 11.24651,0 0,68.64699 -11.24651,0 z"
           id="rect4216-7-2" />
        <g
           id="g4257"
           transform="matrix(-1,0,-0.08275863,1,-1256.3794,-19.292913)">
          <path
             transform="matrix(1,0,0.22829078,0.973593,0,0)"
             style="color:#000000;fill:#ffffff;fill-opacity:1;fill-rule:nonzero;stroke:none;stroke-width:10.19999981;marker:none;visibility:visible;display:inline;overflow:visible;enable-background:accumulate"
             d="m -362.32739,-825.86481 11.24651,0 0,69.79064 -11.24651,0 z"
             id="rect4216-6" />
          <path
             transform="matrix(1,0,0.24253563,0.9701425,0,0)"
             style="color:#000000;fill:#ffffff;fill-opacity:1;fill-rule:nonzero;stroke:none;stroke-width:10.19999981;marker:none;visibility:visible;display:inline;overflow:visible;enable-background:accumulate"
             d="m -333.97662,-828.56061 11.24651,0 0,69.55584 -11.24651,0 z"
             id="rect4216-7-3" />
        </g>
        <path
           style="color:#000000;fill:#008000;fill-opacity:1;fill-rule:nonzero;stroke:none;stroke-width:10.19999981;marker:none;visibility:visible;display:inline;overflow:visible;enable-background:accumulate"
           d="m -731.02332,-758.32629 294.28376,0 0,10.3093 -294.28376,0 z"
           id="rect4315" />
      </g>
      <g
         style="font-size:99.67843628px;font-style:normal;font-variant:normal;font-weight:normal;font-stretch:normal;text-align:start;line-height:125%;letter-spacing:0px;word-spacing:0px;writing-mode:lr-tb;text-anchor:start;fill:#008000;fill-opacity:1;stroke:none;font-family:Bauhaus 93;-inkscape-font-specification:'Bauhaus 93,'"
         id="text4942">
        <path
           d="m 76.686609,125.97997 13.968609,0 0,16.0128 c -1.5e-5,1.58993 0.957182,2.38489 2.871596,2.38488 1.849482,1e-5 2.774232,-0.79495 2.774253,-2.38488 l 0,-8.27409 c -2.1e-5,-2.53088 -1.687284,-5.49981 -5.061795,-8.90681 -6.521939,-6.32721 -10.577861,-10.57782 -12.167778,-12.75184 -1.589925,-2.17393 -2.384886,-4.55881 -2.384885,-7.15465 l 0,-7.836048 c -10e-7,-9.05276 5.905421,-13.579169 17.716285,-13.57924 10.577826,7.1e-5 15.866746,4.120887 15.866786,12.362463 l 0,12.070435 -13.968613,0 0,-12.849173 c -2.1e-5,-1.395178 -0.762534,-2.092797 -2.287542,-2.092858 -1.784624,6.1e-5 -2.676927,1.346627 -2.676911,4.039702 l 0.292027,4.526409 c -1.7e-5,2.59585 1.719694,5.61345 5.159138,9.05283 6.392111,6.1326 10.456141,10.41565 12.192111,12.84917 1.7359,2.43359 2.60387,5.19162 2.60391,8.27409 l 0,8.90682 c -4e-5,9.27996 -5.92169,13.91993 -17.764959,13.91994 -11.421495,-10e-6 -17.132233,-4.21816 -17.132232,-12.65449 z"
           style="line-height:125%;fill:#008000;font-family:Haettenschweiler;-inkscape-font-specification:Haettenschweiler"
           id="path3571" />
        <path
           d="m 147.4544,153.91719 -12.26512,0 0,-2.1902 c -1.03833,1.97929 -4.00727,2.96894 -8.90681,2.96894 -7.56025,0 -11.34037,-2.95271 -11.34037,-8.85814 l 0,-11.34037 c 0,-2.53088 0.91664,-4.7373 2.74992,-6.61927 1.83327,-1.88193 5.52416,-4.23436 11.07268,-7.05732 3.21227,-1.62233 4.81842,-2.92023 4.81844,-3.89368 l 0,-8.37144 c -2e-5,-1.84945 -0.79498,-2.7742 -2.38489,-2.77425 -1.81707,5e-5 -2.72559,2.25514 -2.72558,6.76529 -1e-5,0.81122 0.0487,2.01177 0.14601,3.60166 0.12978,1.58996 0.19467,2.79051 0.19469,3.60166 l -13.38456,0 0,-11.2917 c 0,-7.62509 5.51605,-11.437652 16.54818,-11.437709 10.31825,5.7e-5 15.47738,3.974859 15.47741,11.924419 z m -13.87126,-10.56163 0,-14.55266 c -3.17987,0.77876 -4.76979,2.20644 -4.76977,4.28305 l 0,10.26961 c -2e-5,1.71972 0.82739,2.57958 2.48222,2.57957 1.52501,1e-5 2.28753,-0.85985 2.28755,-2.57957 z"
           style="line-height:125%;fill:#008000;font-family:Haettenschweiler;-inkscape-font-specification:Haettenschweiler"
           id="path3573" />
        <path
           d="m 183.22767,153.91719 -13.87126,0 0,-45.36148 c -2e-5,-1.71966 -0.79498,-2.57952 -2.38489,-2.57956 -1.58994,4e-5 -2.3849,0.82745 -2.38488,2.48222 l 0,45.45882 -13.87127,0 0,-56.50716 13.87127,0 0,1.898173 c 1.84948,-1.524972 4.70485,-2.287485 8.56611,-2.287542 2.49843,5.7e-5 4.80219,0.681452 6.9113,2.044187 2.10905,1.362842 3.16359,3.358362 3.16362,5.986542 z"
           style="line-height:125%;fill:#008000;font-family:Haettenschweiler;-inkscape-font-specification:Haettenschweiler"
           id="path3575" />
        <path
           d="m 213.64711,153.91719 -8.7608,0 c -6.26236,0 -10.01003,-0.94097 -11.24302,-2.82292 -1.23301,-1.88195 -1.84951,-5.49983 -1.84951,-10.85366 l 0,-34.45915 -6.18123,0 0,-8.37143 6.18123,0 0,-11.38904 13.87127,0 0,11.38904 7.49535,0 0,8.37143 -7.49535,0 0,34.36181 c -2e-5,1.65483 0.4948,2.76615 1.48447,3.33397 0.98962,0.56784 3.15548,0.85175 6.49759,0.85174 z"
           style="line-height:125%;fill:#008000;font-family:Haettenschweiler;-inkscape-font-specification:Haettenschweiler"
           id="path3577" />
        <path
           d="m 216.08067,142.77151 0,-33.82643 c 0,-7.94956 5.49983,-11.924362 16.49951,-11.924419 4.25059,5.7e-5 7.99015,0.924807 11.21869,2.774254 3.22849,1.849555 4.84274,4.737375 4.84278,8.663455 l 0,34.79985 c -4e-5,7.62514 -5.35385,11.43771 -16.06147,11.43771 -10.99968,0 -16.49951,-3.97481 -16.49951,-11.92442 z m 18.68971,0.38936 0,-34.60516 c -2e-5,-1.84945 -0.79498,-2.7742 -2.38489,-2.77425 -1.62238,5e-5 -2.43357,0.9248 -2.43355,2.77425 l 0,34.60516 c -2e-5,1.91441 0.81117,2.87161 2.43355,2.8716 1.58991,1e-5 2.38487,-0.95719 2.38489,-2.8716 z"
           style="line-height:125%;fill:#008000;font-family:Haettenschweiler;-inkscape-font-specification:Haettenschweiler"
           id="path3579" />
        <path
           d="m 269.0835,153.91719 0,-69.794373 19.07908,0 c 4.15324,7e-5 7.85224,1.127616 11.09701,3.382642 3.24471,2.255159 4.86708,5.718916 4.86711,10.391282 l 0,42.246529 c -3e-5,4.34796 -1.51695,7.7306 -4.55074,10.14792 -3.03387,2.41734 -6.80587,3.626 -11.31604,3.626 z m 19.61446,-12.65449 0,-44.485394 c -2e-5,-2.433496 -1.4277,-3.650273 -4.28306,-3.650334 l 0,51.834738 c 2.85536,0 4.28304,-1.233 4.28306,-3.69901 z"
           style="line-height:125%;fill:#008000;font-family:Haettenschweiler;-inkscape-font-specification:Haettenschweiler"
           id="path3581" />
        <path
           d="m 306.99831,142.77151 0,-33.82643 c -1e-5,-7.94956 5.49982,-11.924362 16.4995,-11.924419 4.25059,5.7e-5 7.99015,0.924807 11.21869,2.774254 3.22849,1.849555 4.84275,4.737375 4.84278,8.663455 l 0,34.79985 c -3e-5,7.62514 -5.35385,11.43771 -16.06147,11.43771 -10.99968,0 -16.49951,-3.97481 -16.4995,-11.92442 z m 18.6897,0.38936 0,-34.60516 c -2e-5,-1.84945 -0.79498,-2.7742 -2.38488,-2.77425 -1.62239,5e-5 -2.43357,0.9248 -2.43356,2.77425 l 0,34.60516 c -1e-5,1.91441 0.81117,2.87161 2.43356,2.8716 1.5899,1e-5 2.38486,-0.95719 2.38488,-2.8716 z"
           style="line-height:125%;fill:#008000;font-family:Haettenschweiler;-inkscape-font-specification:Haettenschweiler"
           id="path3583" />
        <path
           d="m 393.53554,153.91719 -13.8226,0 0,-45.16679 c -4e-5,-1.71967 -0.795,-2.57952 -2.38488,-2.57957 -1.62241,5e-5 -2.43359,0.82746 -2.43356,2.48223 l 0,45.26413 -13.82259,0 0,-45.26413 c -2e-5,-1.71967 -0.79498,-2.57952 -2.38489,-2.57957 -1.62238,5e-5 -2.43357,0.82745 -2.43355,2.48222 l 0,45.36148 -13.8226,0 0,-56.50716 13.8226,0 0,1.995516 c 1.91438,-1.589867 4.78597,-2.384828 8.61478,-2.384885 3.21227,5.7e-5 6.13253,1.281728 8.7608,3.845019 2.43352,-2.563291 5.75938,-3.844962 9.97758,-3.845019 2.40107,5.7e-5 4.65616,0.722011 6.76529,2.165865 2.10903,1.443964 3.16357,3.447584 3.16362,6.010884 z"
           style="line-height:125%;fill:#008000;font-family:Haettenschweiler;-inkscape-font-specification:Haettenschweiler"
           id="path3585" />
        <path
           d="m 410.4731,94.295079 -13.87127,0 0,-10.172262 13.87127,0 z m 0,59.622111 -13.87127,0 0,-56.50716 13.87127,0 z"
           style="line-height:125%;fill:#008000;font-family:Haettenschweiler;-inkscape-font-specification:Haettenschweiler"
           id="path3587" />
        <path
           d="m 445.85698,153.91719 -13.87127,0 0,-45.36148 c -2e-5,-1.71966 -0.79498,-2.57952 -2.38489,-2.57956 -1.58993,4e-5 -2.3849,0.82745 -2.38488,2.48222 l 0,45.45882 -13.87127,0 0,-56.50716 13.87127,0 0,1.898173 c 1.84949,-1.524972 4.70485,-2.287485 8.56612,-2.287542 2.49842,5.7e-5 4.80218,0.681452 6.91129,2.044187 2.10905,1.362842 3.16359,3.358362 3.16363,5.986542 z"
           style="line-height:125%;fill:#008000;font-family:Haettenschweiler;-inkscape-font-specification:Haettenschweiler"
           id="path3589" />
        <path
           d="m 451.25949,165.89028 0,-8.17674 11.24302,0 c 3.27717,-1e-5 4.91577,-1.70349 4.91579,-5.11047 -1.81708,1.39524 -4.67245,2.09286 -8.56612,2.09286 -2.72559,0 -5.08614,-0.72196 -7.08165,-2.16587 -1.99551,-1.4439 -2.99327,-3.33396 -2.99327,-5.67018 l 0,-40.59171 c 0,-6.16495 3.68278,-9.247452 11.04834,-9.247509 1.94683,5.7e-5 4.51017,0.827465 7.69004,2.482227 l 1.80083,-2.092858 11.92442,0 0,55.72842 c -3e-5,3.66656 -0.72199,6.7085 -2.16586,9.12584 -1.44394,2.41732 -5.92979,3.62598 -13.45757,3.62599 z m 16.15881,-22.04801 0,-35.48124 c -2e-5,-1.71967 -0.79499,-2.57952 -2.38489,-2.57957 -1.62239,5e-5 -2.43357,0.8599 -2.43355,2.57957 l 0,35.3839 c -2e-5,1.71972 0.81116,2.57957 2.43355,2.57957 1.5899,0 2.38487,-0.8274 2.38489,-2.48223 z"
           style="line-height:125%;fill:#008000;font-family:Haettenschweiler;-inkscape-font-specification:Haettenschweiler"
           id="path3591" />
        <path
           d="m 483.96646,142.77151 0,-33.82643 c 0,-7.94956 5.49983,-11.924362 16.49951,-11.924419 4.25059,5.7e-5 7.99015,0.924807 11.21869,2.774254 3.22848,1.849555 4.84274,4.737375 4.84277,8.663455 l 0,34.79985 c -3e-5,7.62514 -5.35385,11.43771 -16.06146,11.43771 -10.99968,0 -16.49951,-3.97481 -16.49951,-11.92442 z m 18.68971,0.38936 0,-34.60516 c -2e-5,-1.84945 -0.79498,-2.7742 -2.38489,-2.77425 -1.62238,5e-5 -2.43357,0.9248 -2.43355,2.77425 l 0,34.60516 c -2e-5,1.91441 0.81117,2.87161 2.43355,2.8716 1.58991,1e-5 2.38487,-0.95719 2.38489,-2.8716 z"
           style="line-height:125%;fill:#008000;font-family:Haettenschweiler;-inkscape-font-specification:Haettenschweiler"
           id="path3593" />
        <path
           d="m 567.1454,153.91719 -29.98141,0 0,-69.794373 29.78672,0 0,9.004155 -14.45532,0 0,18.835718 13.04386,0 0,8.46878 -13.04386,0 0,24.53024 14.65001,0 z"
           style="line-height:125%;fill:#008000;font-family:Haettenschweiler;-inkscape-font-specification:Haettenschweiler"
           id="path3595" />
        <path
           d="m 569.48161,131.18778 13.82259,0 0,11.97309 c -1e-5,1.91441 0.77872,2.87161 2.33621,2.8716 1.55746,1e-5 2.3362,-1.83327 2.33622,-5.49984 -2e-5,-4.76975 -0.95722,-7.85225 -2.8716,-9.24751 -7.23578,-3.79632 -11.59995,-6.44889 -13.09253,-7.95772 -1.49258,-1.50878 -2.23887,-3.77198 -2.23887,-6.78962 l 0,-7.5927 c 0,-7.94956 5.38626,-11.924362 16.15881,-11.924419 10.48049,5.7e-5 15.72074,3.812619 15.72077,11.437709 l 0,11.14569 -13.53057,0 0.29203,-6.76529 c -2e-5,-4.70483 -0.85988,-7.05726 -2.57957,-7.05731 -1.71973,5e-5 -2.57959,1.47641 -2.57957,4.42907 -2e-5,3.0501 0.38124,5.35386 1.14377,6.9113 0.7625,1.55751 5.00499,4.23442 12.7275,8.03073 3.21226,2.3038 4.8184,5.35385 4.81844,9.15017 l 0,8.46878 c -4e-5,7.94961 -5.46742,11.92442 -16.40217,11.92442 -10.70765,0 -16.06147,-3.81257 -16.06146,-11.43771 z"
           style="line-height:125%;fill:#008000;font-family:Haettenschweiler;-inkscape-font-specification:Haettenschweiler"
           id="path3597" />
        <path
           d="m 632.21867,153.91719 -8.7608,0 c -6.26237,0 -10.01004,-0.94097 -11.24303,-2.82292 -1.23301,-1.88195 -1.84951,-5.49983 -1.8495,-10.85366 l 0,-34.45915 -6.18123,0 0,-8.37143 6.18123,0 0,-11.38904 13.87127,0 0,11.38904 7.49535,0 0,8.37143 -7.49535,0 0,34.36181 c -3e-5,1.65483 0.4948,2.76615 1.48446,3.33397 0.98963,0.56784 3.15549,0.85175 6.4976,0.85174 z"
           style="line-height:125%;fill:#008000;font-family:Haettenschweiler;-inkscape-font-specification:Haettenschweiler"
           id="path3599" />
        <path
           d="m 667.40788,129.971 -18.64104,0 0,13.18987 c -10e-6,1.91441 0.81117,2.87161 2.43356,2.8716 1.5899,1e-5 2.38486,-0.95719 2.38488,-2.8716 l 0,-11.38904 13.8226,0 0,11.48639 c -3e-5,7.62514 -5.43497,11.43771 -16.30482,11.43771 -10.77255,0 -16.15881,-3.97481 -16.15881,-11.92442 l 0,-33.82643 c 0,-7.94956 5.38626,-11.924362 16.15881,-11.924419 10.86985,5.7e-5 16.30479,3.812619 16.30482,11.437709 z m -13.8226,-8.46877 0,-12.94652 c -2e-5,-1.84945 -0.79498,-2.7742 -2.38488,-2.77425 -1.62239,5e-5 -2.43357,0.9248 -2.43356,2.77425 l 0,12.94652 z"
           style="line-height:125%;fill:#008000;font-family:Haettenschweiler;-inkscape-font-specification:Haettenschweiler"
           id="path3601" />
      </g>
      <g
         transform="scale(1.0561497,0.94683547)"
         style="font-size:161.77348328px;font-style:normal;font-variant:normal;font-weight:normal;font-stretch:normal;text-align:start;line-height:125%;letter-spacing:0px;word-spacing:0px;writing-mode:lr-tb;text-anchor:start;fill:#008000;fill-opacity:1;stroke:none;font-family:Haettenschweiler;-inkscape-font-specification:Haettenschweiler"
         id="text4950">
        <path
           d="m 298.47468,1064.3956 -24.64518,0 -4.18652,-30.4115 -11.13772,0 -4.18652,30.4115 -24.64518,0 18.64186,-113.273 31.5174,0 z m -30.88546,-46.1307 -3.5546,-33.80812 -3.39661,33.80812 z"
           style=""
           id="path3604" />
        <path
           d="m 302.26625,1019.0548 22.67041,0 0,25.988 c -3e-5,2.5804 1.55346,3.8706 4.66046,3.8706 3.00163,0 4.50245,-1.2902 4.50249,-3.8706 l 0,-13.4284 c -4e-5,-4.1075 -2.73839,-8.926 -8.21506,-14.4554 -10.58481,-10.2687 -17.16738,-17.16727 -19.74774,-20.69559 -2.58038,-3.5282 -3.87056,-7.39875 -3.87056,-11.61168 l 0,-12.71754 c 0,-14.69221 9.58423,-22.03836 28.75271,-22.03848 17.16732,1.2e-4 25.751,6.68801 25.75105,20.06371 l 0,19.58975 -22.6704,0 0,-20.85361 c -4e-5,-2.26431 -1.23756,-3.39651 -3.71258,-3.39661 -2.89636,10e-5 -4.34453,2.18551 -4.3445,6.55625 l 0.47395,7.34616 c -3e-5,4.21293 2.79098,9.11036 8.37304,14.69232 10.3741,9.95292 16.96984,16.90412 19.78723,20.85362 2.81729,3.9496 4.22596,8.4257 4.22602,13.4285 l 0,14.4553 c -6e-5,15.0609 -9.61062,22.5914 -28.8317,22.5914 -18.53656,0 -27.80482,-6.8459 -27.80482,-20.5376 z"
           style=""
           id="path3606" />
        <path
           d="m 363.9582,1064.3956 0,-113.273 30.96445,0 c 6.74052,1.1e-4 12.74383,1.83006 18.00994,5.48987 5.26601,3.66002 7.89904,9.28153 7.8991,16.86457 l 0,68.56416 c -6e-5,7.0565 -2.46195,12.5464 -7.38566,16.4696 -4.92382,3.9232 -11.04561,5.8848 -18.3654,5.8848 z m 31.83335,-20.5376 0,-72.19776 c -3e-5,-3.94945 -2.3171,-5.92422 -6.9512,-5.92432 l 0,84.12538 c 4.6341,0 6.95117,-2.0011 6.9512,-6.0033 z"
           style=""
           id="path3608" />
        <path
           d="m 474.8615,1064.3956 -48.65843,0 0,-113.273 48.34247,0 0,14.61332 -23.46032,0 0,30.5695 21.16958,0 0,13.74448 -21.16958,0 0,39.8114 23.77628,0 z"
           style=""
           id="path3610" />
      </g>
    </g>
  </g>
</svg>
